{
    "accessors": [
        {
            "bufferView": 0,
            "byteOffset": 0,
            "componentType": 5126,
            "count": 80751,
            "max": [
                107.51100158691406,
                31.87700080871582,
                60.61370086669922
            ],
            "min": [
                -123.63700103759766,
                -57.903900146484375,
                -89.41850280761719
            ],
            "name": "accessor_buffer_grp1_POSITION_0",
            "type": "VEC3"
        },
        {
            "bufferView": 4,
            "byteOffset": 0,
            "componentType": 5126,
            "count": 14709,
            "max": [
                0.9999768137931824,
                0.9997352957725525,
                0.9987966418266296
            ],
            "min": [
                -0.9999479055404663,
                -0.999245822429657,
                -0.9993894696235657
            ],
            "name": "accessor_buffer_grp1.001_NORMAL_0",
            "type": "VEC3"
        },
        {
            "bufferView": 5,
            "byteOffset": 0,
            "componentType": 5123,
            "count": 81648,
            "max": [
                14708
            ],
            "min": [
                0
            ],
            "name": "accessor_buffer_grp1.001_0",
            "type": "SCALAR"
        },
        {
            "bufferView": 1,
            "byteOffset": 0,
            "componentType": 5126,
            "count": 80751,
            "max": [
                0.999995768070221,
                0.9999805092811584,
                0.9999995231628418
            ],
            "min": [
                -0.9999994039535522,
                -0.9999995231628418,
                -0.9999999403953552
            ],
            "name": "accessor_buffer_grp1_NORMAL_0",
            "type": "VEC3"
        },
        {
            "bufferView": 2,
            "byteOffset": 0,
            "componentType": 5125,
            "count": 478302,
            "max": [
                80750
            ],
            "min": [
                0
            ],
            "name": "accessor_buffer_grp1_0",
            "type": "SCALAR"
        },
        {
            "bufferView": 3,
            "byteOffset": 0,
            "componentType": 5126,
            "count": 14709,
            "max": [
                54.80659866333008,
                27.555200576782227,
                28.17020034790039
            ],
            "min": [
                -85.4030990600586,
                -41.13999938964844,
                -43.296600341796875
            ],
            "name": "accessor_buffer_grp1.001_POSITION_0",
            "type": "VEC3"
        }
    ],
    "asset": {
        "copyright": "",
        "generator": "blendergltf v1.2.0",
        "version": "2.0"
    },
    "bufferViews": [
        {
            "buffer": 0,
            "byteLength": 969012,
            "byteOffset": 0,
            "byteStride": 12,
            "name": "bufferView_buffer_grp1_POSITION_0",
            "target": 34962
        },
        {
            "buffer": 0,
            "byteLength": 969012,
            "byteOffset": 969012,
            "byteStride": 12,
            "name": "bufferView_buffer_grp1_NORMAL_0",
            "target": 34962
        },
        {
            "buffer": 0,
            "byteLength": 1913212,
            "byteOffset": 1938024,
            "name": "bufferView_buffer_grp1_0",
            "target": 34963
        },
        {
            "buffer": 0,
            "byteLength": 176508,
            "byteOffset": 3851236,
            "byteStride": 12,
            "name": "bufferView_buffer_grp1.001_POSITION_0",
            "target": 34962
        },
        {
            "buffer": 0,
            "byteLength": 176508,
            "byteOffset": 4027744,
            "byteStride": 12,
            "name": "bufferView_buffer_grp1.001_NORMAL_0",
            "target": 34962
        },
        {
            "buffer": 0,
            "byteLength": 163300,
            "byteOffset": 4204252,
            "name": "bufferView_buffer_grp1.001_0",
            "target": 34963
        }
    ],
    "buffers": [
        {
            "byteLength": 4367552,
            "name": "buffer_anotherTestGhost",
            "uri": "buffer_anotherTestGhost.bin"
        }
    ],
    "cameras": [
        {
            "name": "Camera",
            "perspective": {
                "aspectRatio": 1.703595982340029,
                "yfov": 0.5033799409866333,
                "zfar": 100.0,
                "znear": 0.10000000149011612
            },
            "type": "perspective"
        }
    ],
    "materials": [
        {
            "alphaMode": "OPAQUE",
            "doubleSided": false,
            "emissiveFactor": [
                0.0,
                0.0,
                0.0
            ],
            "name": "mtl1",
            "pbrMetallicRoughness": {
                "baseColorFactor": [
                    0.9450979828834534,
                    0.8392159938812256,
                    0.5686269998550415,
                    1.0
                ],
                "metallicFactor": 0.0,
                "roughnessFactor": 1.0
            }
        },
        {
            "alphaMode": "OPAQUE",
            "doubleSided": false,
            "emissiveFactor": [
                0.0,
                0.0,
                0.0
            ],
            "name": "mtl1.001",
            "pbrMetallicRoughness": {
                "baseColorFactor": [
                    0.5019609928131104,
                    0.6823530197143555,
                    0.5019609928131104,
                    1.0
                ],
                "metallicFactor": 0.0,
                "roughnessFactor": 1.0
            }
        }
    ],
    "meshes": [
        {
            "name": "grp1",
            "primitives": [
                {
                    "attributes": {
                        "NORMAL": 3,
                        "POSITION": 0
                    },
                    "indices": 4,
                    "material": 0,
                    "mode": 4
                }
            ]
        },
        {
            "name": "grp1.001",
            "primitives": [
                {
                    "attributes": {
                        "NORMAL": 1,
                        "POSITION": 5
                    },
                    "indices": 2,
                    "material": 1,
                    "mode": 4
                }
            ]
        }
    ],
    "nodes": [
        {
            "camera": 0,
            "name": "Camera",
            "rotation": [
                -0.09062843769788742,
                -0.8937962651252747,
                -0.2099730223417282,
                0.38578000664711
            ],
            "scale": [
                1.0,
                1.0,
                1.0
            ],
            "translation": [
                -7.481131553649902,
                5.34366512298584,
                -6.5076398849487305
            ]
        },
        {
            "mesh": 0,
            "name": "grp1",
            "rotation": [
                -0.7071068286895752,
                0.0,
                0.0,
                0.7071067094802856
            ],
            "scale": [
                1.0,
                1.0,
                1.0
            ],
            "translation": [
                0.0,
                0.0,
                0.0
            ]
        },
        {
            "mesh": 1,
            "name": "grp1.001",
            "rotation": [
                -0.7071068286895752,
                0.0,
                0.0,
                0.7071067094802856
            ],
            "scale": [
                1.0,
                1.0,
                1.0
            ],
            "translation": [
                0.0,
                0.0,
                0.0
            ]
        },
        {
            "name": "Lamp",
            "rotation": [
                -0.34203386306762695,
                -0.5232755541801453,
                -0.2841663062572479,
                0.7269423007965088
            ],
            "scale": [
                1.0,
                1.0,
                0.9999999403953552
            ],
            "translation": [
                -4.076245307922363,
                5.903861999511719,
                1.0054539442062378
            ]
        }
    ],
    "scene": 0,
    "scenes": [
        {
            "extras": {
                "active_camera": 0,
                "background_color": [
                    0.05087608844041824,
                    0.05087608844041824,
                    0.05087608844041824
                ],
                "frames_per_second": 24
            },
            "name": "Scene",
            "nodes": [
                2,
                1,
                3,
                0
            ]
        }
    ]
}
