{"accessors":[{"bufferView":0,"componentType":5121,"count":36,"max":[23],"min":[0],"type":"SCALAR"},{"bufferView":1,"componentType":5126,"count":24,"max":[1.0000004768371582,1.0,1.0000005960464478],"min":[-1.0000003576278687,-1.0,-1.0000003576278687],"type":"VEC3"},{"bufferView":2,"componentType":5126,"count":24,"max":[1.0,1.0,1.0],"min":[-1.0,-1.0,-1.0],"type":"VEC3"},{"bufferView":3,"componentType":5123,"count":2880,"max":[1983],"min":[0],"type":"SCALAR"},{"bufferView":4,"componentType":5126,"count":1984,"max":[1.000000238418579,1.0,1.0000003576278687],"min":[-0.9999998211860657,-1.0,-1.0],"type":"VEC3"},{"bufferView":5,"componentType":5126,"count":1984,"max":[0.9904382228851318,0.99513840675354,0.9904382824897766],"min":[-0.9904382228851318,-0.99513840675354,-0.9904384016990662],"type":"VEC3"},{"bufferView":6,"componentType":5121,"count":372,"max":[191],"min":[0],"type":"SCALAR"},{"bufferView":7,"componentType":5126,"count":192,"max":[1.0,1.0,1.0],"min":[-1.0,-1.0,-1.0],"type":"VEC3"},{"bufferView":8,"componentType":5126,"count":192,"max":[0.9951847195625305,1.0,0.9951847195625305],"min":[-0.9951847791671753,-1.0,-0.9951847791671753],"type":"VEC3"},{"bufferView":9,"componentType":5121,"count":372,"max":[191],"min":[0],"type":"SCALAR"},{"bufferView":10,"componentType":5126,"count":192,"max":[1.0,1.0,1.0],"min":[-1.0,-1.0,-1.0],"type":"VEC3"},{"bufferView":11,"componentType":5126,"count":192,"max":[0.9951847195625305,1.0,0.9951847195625305],"min":[-0.9951847791671753,-1.0,-0.9951847791671753],"type":"VEC3"},{"bufferView":12,"componentType":5121,"count":372,"max":[191],"min":[0],"type":"SCALAR"},{"bufferView":13,"componentType":5126,"count":192,"max":[1.0,1.0,1.0],"min":[-1.0,-1.0,-1.0],"type":"VEC3"},{"bufferView":14,"componentType":5126,"count":192,"max":[0.9951847195625305,1.0,0.9951847195625305],"min":[-0.9951847791671753,-1.0,-0.9951847791671753],"type":"VEC3"},{"bufferView":15,"componentType":5121,"count":372,"max":[191],"min":[0],"type":"SCALAR"},{"bufferView":16,"componentType":5126,"count":192,"max":[1.0,1.0,1.0],"min":[-1.0,-1.0,-1.0],"type":"VEC3"},{"bufferView":17,"componentType":5126,"count":192,"max":[0.9951847195625305,1.0,0.9951847195625305],"min":[-0.9951847791671753,-1.0,-0.9951847791671753],"type":"VEC3"}],"asset":{"generator":"Khronos Blender glTF 2.0 exporter","version":"2.0"},"bufferViews":[{"buffer":0,"byteLength":36,"byteOffset":0,"target":34963},{"buffer":0,"byteLength":288,"byteOffset":36,"target":34962},{"buffer":0,"byteLength":288,"byteOffset":324,"target":34962},{"buffer":0,"byteLength":5760,"byteOffset":612,"target":34963},{"buffer":0,"byteLength":23808,"byteOffset":6372,"target":34962},{"buffer":0,"byteLength":23808,"byteOffset":30180,"target":34962},{"buffer":0,"byteLength":372,"byteOffset":53988,"target":34963},{"buffer":0,"byteLength":2304,"byteOffset":54360,"target":34962},{"buffer":0,"byteLength":2304,"byteOffset":56664,"target":34962},{"buffer":0,"byteLength":372,"byteOffset":58968,"target":34963},{"buffer":0,"byteLength":2304,"byteOffset":59340,"target":34962},{"buffer":0,"byteLength":2304,"byteOffset":61644,"target":34962},{"buffer":0,"byteLength":372,"byteOffset":63948,"target":34963},{"buffer":0,"byteLength":2304,"byteOffset":64320,"target":34962},{"buffer":0,"byteLength":2304,"byteOffset":66624,"target":34962},{"buffer":0,"byteLength":372,"byteOffset":68928,"target":34963},{"buffer":0,"byteLength":2304,"byteOffset":69300,"target":34962},{"buffer":0,"byteLength":2304,"byteOffset":71604,"target":34962}],"buffers":[{"byteLength":73908,"uri":"data:application/octet-stream;base64,"}],"materials":[{"alphaMode":"BLEND","name":"Transparent","pbrMetallicRoughness":{"baseColorFactor":[0.6400000190734865,0.6400000190734865,0.6400000190734865,0.34736841917037964],"metallicFactor":0.0}}],"meshes":[{"name":"Cube","primitives":[{"attributes":{"NORMAL":2,"POSITION":1},"indices":0,"material":0}]},{"name":"Sphere","primitives":[{"attributes":{"NORMAL":5,"POSITION":4},"indices":3}]},{"name":"Cylinder.003","primitives":[{"attributes":{"NORMAL":8,"POSITION":7},"indices":6}]},{"name":"Cylinder.002","primitives":[{"attributes":{"NORMAL":11,"POSITION":10},"indices":9}]},{"name":"Cylinder.004","primitives":[{"attributes":{"NORMAL":14,"POSITION":13},"indices":12}]},{"name":"Cylinder.005","primitives":[{"attributes":{"NORMAL":17,"POSITION":16},"indices":15}]}],"nodes":[{"name":"Camera","rotation":[0.483536034822464,0.33687159419059753,-0.20870360732078552,0.7804827094078064],"translation":[7.481131553649902,5.34366512298584,6.5076398849487305]},{"mesh":0,"name":"Cube","scale":[1.0,1.0,3.0],"translation":[0.0,0.0,-0.003979679197072983]},{"mesh":3,"name":"Cylinder","scale":[0.30000001192092896,1.0,0.30000001192092896],"translation":[0.5227631330490112,0.0,1.6013970375061035]},{"mesh":2,"name":"Cylinder.001","scale":[0.30000001192092896,1.0,0.30000001192092896],"translation":[-0.21197226643562317,0.0,0.6167118549346924]},{"mesh":4,"name":"Cylinder.002","scale":[0.30000001192092896,1.0,0.30000001192092896],"translation":[-0.5912126302719116,0.0,1.753558874130249]},{"mesh":5,"name":"Cylinder.003","scale":[0.30000001192092896,0.5,0.30000001192092896],"translation":[-0.04518964886665344,-0.511229932308197,1.3157745599746704]},{"name":"Lamp","rotation":[0.16907575726509094,0.7558802962303162,-0.27217137813568115,0.570947527885437],"scale":[1.0,1.0,0.9999999403953552],"translation":[4.076245307922363,5.903861999511719,-1.0054539442062378]},{"mesh":1,"name":"Sphere","scale":[0.5,0.5,0.5],"translation":[-0.11526389420032501,0.38201093673706055,1.2916806936264038]}],"scene":0,"scenes":[{"name":"Scene","nodes":[7,5,4,3,2,1,6,0]}]}
