{
    "accessors" : [
        {
            "bufferView" : 0, 
            "componentType" : 5125, 
            "count" : 4579074, 
            "max" : [
                813367
            ], 
            "min" : [
                0
            ], 
            "type" : "SCALAR"
        }, 
        {
            "bufferView" : 1, 
            "componentType" : 5126, 
            "count" : 813368, 
            "max" : [
                134.11099243164062, 
                81.1969985961914, 
                102.91100311279297
            ], 
            "min" : [
                -142.73199462890625, 
                -79.37339782714844, 
                -105.4219970703125
            ], 
            "type" : "VEC3"
        }, 
        {
            "bufferView" : 2, 
            "componentType" : 5126, 
            "count" : 813368, 
            "max" : [
                1.0, 
                1.0, 
                1.0
            ], 
            "min" : [
                -1.0, 
                -1.0, 
                -1.0
            ], 
            "type" : "VEC3"
        }, 
        {
            "bufferView" : 3, 
            "componentType" : 5123, 
            "count" : 133206, 
            "max" : [
                38821
            ], 
            "min" : [
                0
            ], 
            "type" : "SCALAR"
        }, 
        {
            "bufferView" : 4, 
            "componentType" : 5126, 
            "count" : 38822, 
            "max" : [
                99.5479965209961, 
                67.81900024414062, 
                65.82060241699219
            ], 
            "min" : [
                -104.95700073242188, 
                -61.19900131225586, 
                -97.74040222167969
            ], 
            "type" : "VEC3"
        }, 
        {
            "bufferView" : 5, 
            "componentType" : 5126, 
            "count" : 38822, 
            "max" : [
                0.99981689453125, 
                0.999786376953125, 
                1.0
            ], 
            "min" : [
                -0.999969482421875, 
                -0.99993896484375, 
                -0.999969482421875
            ], 
            "type" : "VEC3"
        }
    ], 
    "asset" : {
        "generator" : "Khronos Blender glTF 2.0 exporter", 
        "version" : "2.0"
    }, 
    "bufferViews" : [
        {
            "buffer" : 0, 
            "byteLength" : 18316296, 
            "byteOffset" : 0, 
            "target" : 34963
        }, 
        {
            "buffer" : 0, 
            "byteLength" : 9760416, 
            "byteOffset" : 18316296, 
            "target" : 34962
        }, 
        {
            "buffer" : 0, 
            "byteLength" : 9760416, 
            "byteOffset" : 28076712, 
            "target" : 34962
        }, 
        {
            "buffer" : 0, 
            "byteLength" : 266412, 
            "byteOffset" : 37837128, 
            "target" : 34963
        }, 
        {
            "buffer" : 0, 
            "byteLength" : 465864, 
            "byteOffset" : 38103540, 
            "target" : 34962
        }, 
        {
            "buffer" : 0, 
            "byteLength" : 465864, 
            "byteOffset" : 38569404, 
            "target" : 34962
        }
    ], 
    "buffers" : [
        {
            "byteLength" : 39035268, 
            "uri" : "testGhost2.bin"
        }
    ], 
    "materials" : [
        {
            "name" : "mtl1.002", 
            "pbrMetallicRoughness" : {
                "baseColorFactor" : [
                    0.5019609928131104, 
                    0.6823530197143555, 
                    0.5019609928131104, 
                    1.0
                ], 
                "metallicFactor" : 0.0
            }
        }, 
        {
            "name" : "mtl1.003", 
            "pbrMetallicRoughness" : {
                "baseColorFactor" : [
                    0.875868022441864, 
                    0.6109099984169006, 
                    0.4596930146217346, 
                    1.0
                ], 
                "metallicFactor" : 0.0
            }
        }
    ], 
    "meshes" : [
        {
            "name" : "grp1.003", 
            "primitives" : [
                {
                    "attributes" : {
                        "NORMAL" : 2, 
                        "POSITION" : 1
                    }, 
                    "indices" : 0, 
                    "material" : 1
                }
            ]
        }, 
        {
            "name" : "grp1.002", 
            "primitives" : [
                {
                    "attributes" : {
                        "NORMAL" : 5, 
                        "POSITION" : 4
                    }, 
                    "indices" : 3, 
                    "material" : 0
                }
            ]
        }
    ], 
    "nodes" : [
        {
            "name" : "Camera", 
            "rotation" : [
                0.483536034822464, 
                0.33687159419059753, 
                -0.20870360732078552, 
                0.7804827094078064
            ], 
            "translation" : [
                7.481131553649902, 
                5.34366512298584, 
                6.5076398849487305
            ]
        }, 
        {
            "mesh" : 0, 
            "name" : "grp1.001", 
            "rotation" : [
                0.7071068286895752, 
                0.0, 
                -0.0, 
                0.7071067094802856
            ]
        }, 
        {
            "mesh" : 1, 
            "name" : "grp1.008", 
            "rotation" : [
                0.7071068286895752, 
                0.0, 
                -0.0, 
                0.7071067094802856
            ]
        }, 
        {
            "name" : "Lamp", 
            "rotation" : [
                0.16907575726509094, 
                0.7558802962303162, 
                -0.27217137813568115, 
                0.570947527885437
            ], 
            "scale" : [
                1.0, 
                1.0, 
                0.9999999403953552
            ], 
            "translation" : [
                4.076245307922363, 
                5.903861999511719, 
                -1.0054539442062378
            ]
        }
    ], 
    "scene" : 0, 
    "scenes" : [
        {
            "name" : "Scene", 
            "nodes" : [
                1, 
                2, 
                3, 
                0
            ]
        }
    ]
}
