{
    "accessors" : [
        {
            "bufferView" : 0, 
            "componentType" : 5125, 
            "count" : 2499072, 
            "max" : [
                498219
            ], 
            "min" : [
                0
            ], 
            "type" : "SCALAR"
        }, 
        {
            "bufferView" : 1, 
            "componentType" : 5126, 
            "count" : 498220, 
            "max" : [
                102.66500091552734, 
                176.28399658203125, 
                52.84880065917969
            ], 
            "min" : [
                -108.1760025024414, 
                -160.6230010986328, 
                -78.42179870605469
            ], 
            "type" : "VEC3"
        }, 
        {
            "bufferView" : 2, 
            "componentType" : 5126, 
            "count" : 498220, 
            "max" : [
                1.0, 
                1.0, 
                1.0
            ], 
            "min" : [
                -1.0, 
                -1.0, 
                -1.0
            ], 
            "type" : "VEC3"
        }, 
        {
            "bufferView" : 3, 
            "componentType" : 5123, 
            "count" : 139932, 
            "max" : [
                23411
            ], 
            "min" : [
                0
            ], 
            "type" : "SCALAR"
        }, 
        {
            "bufferView" : 4, 
            "componentType" : 5126, 
            "count" : 23412, 
            "max" : [
                101.05799865722656, 
                168.54600524902344, 
                39.584598541259766
            ], 
            "min" : [
                -100.47000122070312, 
                -159.1230010986328, 
                -74.80149841308594
            ], 
            "type" : "VEC3"
        }, 
        {
            "bufferView" : 5, 
            "componentType" : 5126, 
            "count" : 23412, 
            "max" : [
                0.99981689453125, 
                0.999725341796875, 
                0.99993896484375
            ], 
            "min" : [
                -0.999969482421875, 
                -0.99993896484375, 
                -0.999969482421875
            ], 
            "type" : "VEC3"
        }, 
        {
            "bufferView" : 6, 
            "componentType" : 5121, 
            "count" : 36, 
            "max" : [
                23
            ], 
            "min" : [
                0
            ], 
            "type" : "SCALAR"
        }, 
        {
            "bufferView" : 7, 
            "componentType" : 5126, 
            "count" : 24, 
            "max" : [
                1.0000004768371582, 
                1.0, 
                1.0000005960464478
            ], 
            "min" : [
                -1.0000003576278687, 
                -1.0, 
                -1.0000003576278687
            ], 
            "type" : "VEC3"
        }, 
        {
            "bufferView" : 8, 
            "componentType" : 5126, 
            "count" : 24, 
            "max" : [
                1.0, 
                1.0, 
                1.0
            ], 
            "min" : [
                -1.0, 
                -1.0, 
                -1.0
            ], 
            "type" : "VEC3"
        }
    ], 
    "asset" : {
        "generator" : "Khronos Blender glTF 2.0 exporter", 
        "version" : "2.0"
    }, 
    "bufferViews" : [
        {
            "buffer" : 0, 
            "byteLength" : 9996288, 
            "byteOffset" : 0, 
            "target" : 34963
        }, 
        {
            "buffer" : 0, 
            "byteLength" : 5978640, 
            "byteOffset" : 9996288, 
            "target" : 34962
        }, 
        {
            "buffer" : 0, 
            "byteLength" : 5978640, 
            "byteOffset" : 15974928, 
            "target" : 34962
        }, 
        {
            "buffer" : 0, 
            "byteLength" : 279864, 
            "byteOffset" : 21953568, 
            "target" : 34963
        }, 
        {
            "buffer" : 0, 
            "byteLength" : 280944, 
            "byteOffset" : 22233432, 
            "target" : 34962
        }, 
        {
            "buffer" : 0, 
            "byteLength" : 280944, 
            "byteOffset" : 22514376, 
            "target" : 34962
        }, 
        {
            "buffer" : 0, 
            "byteLength" : 36, 
            "byteOffset" : 22795320, 
            "target" : 34963
        }, 
        {
            "buffer" : 0, 
            "byteLength" : 288, 
            "byteOffset" : 22795356, 
            "target" : 34962
        }, 
        {
            "buffer" : 0, 
            "byteLength" : 288, 
            "byteOffset" : 22795644, 
            "target" : 34962
        }
    ], 
    "buffers" : [
        {
            "byteLength" : 22795932, 
            "uri" : "box.bin"
        }
    ], 
    "materials" : [
        {
            "name" : "Material", 
            "pbrMetallicRoughness" : {
                "baseColorFactor" : [
                    0.6400000190734865, 
                    0.6400000190734865, 
                    0.6400000190734865, 
                    1.0
                ], 
                "metallicFactor" : 0.0
            }
        }, 
        {
            "name" : "mtl1.002", 
            "pbrMetallicRoughness" : {
                "baseColorFactor" : [
                    0.9019610285758972, 
                    0.8627449870109558, 
                    0.274509996175766, 
                    1.0
                ], 
                "metallicFactor" : 0.0
            }
        }, 
        {
            "name" : "mtl1.003", 
            "pbrMetallicRoughness" : {
                "baseColorFactor" : [
                    0.6823530197143555, 
                    0.1802240014076233, 
                    0.1016559973359108, 
                    1.0
                ], 
                "metallicFactor" : 0.0
            }
        }
    ], 
    "meshes" : [
        {
            "name" : "grp1.002", 
            "primitives" : [
                {
                    "attributes" : {
                        "NORMAL" : 2, 
                        "POSITION" : 1
                    }, 
                    "indices" : 0, 
                    "material" : 1
                }
            ]
        }, 
        {
            "name" : "grp1.003", 
            "primitives" : [
                {
                    "attributes" : {
                        "NORMAL" : 5, 
                        "POSITION" : 4
                    }, 
                    "indices" : 3, 
                    "material" : 2
                }
            ]
        }, 
        {
            "name" : "Cube", 
            "primitives" : [
                {
                    "attributes" : {
                        "NORMAL" : 8, 
                        "POSITION" : 7
                    }, 
                    "indices" : 6, 
                    "material" : 0
                }
            ]
        }
    ], 
    "nodes" : [
        {
            "name" : "Camera", 
            "rotation" : [
                0.483536034822464, 
                0.33687159419059753, 
                -0.20870360732078552, 
                0.7804827094078064
            ], 
            "translation" : [
                7.481131553649902, 
                5.34366512298584, 
                6.5076398849487305
            ]
        }, 
        {
            "mesh" : 2, 
            "name" : "Cube"
        }, 
        {
            "mesh" : 0, 
            "name" : "grp1.002", 
            "rotation" : [
                0.7071068286895752, 
                0.0, 
                -0.0, 
                0.7071067094802856
            ]
        }, 
        {
            "mesh" : 1, 
            "name" : "grp1.003", 
            "rotation" : [
                0.7071068286895752, 
                0.0, 
                -0.0, 
                0.7071067094802856
            ]
        }, 
        {
            "name" : "Lamp", 
            "rotation" : [
                0.16907575726509094, 
                0.7558802962303162, 
                -0.27217137813568115, 
                0.570947527885437
            ], 
            "scale" : [
                1.0, 
                1.0, 
                0.9999999403953552
            ], 
            "translation" : [
                4.076245307922363, 
                5.903861999511719, 
                -1.0054539442062378
            ]
        }
    ], 
    "scene" : 0, 
    "scenes" : [
        {
            "name" : "Scene", 
            "nodes" : [
                3, 
                2, 
                1, 
                4, 
                0
            ]
        }
    ]
}
